<mxfile host="app.diagrams.net" modified="2023-04-18T14:24:15.676Z" agent="Mozilla/5.0 (X11; Linux x86_64) AppleWebKit/537.36 (KHTML, like Gecko) Chrome/108.0.0.0 Safari/537.36" etag="LESJ-Vp9vXMkiQxFhVhZ" version="21.1.8" type="github">
  <diagram name="Página-1" id="qcd2f4EmbbBOy3EuTIoG">
    <mxGraphModel dx="648" dy="381" grid="1" gridSize="10" guides="1" tooltips="1" connect="1" arrows="1" fold="1" page="1" pageScale="1" pageWidth="827" pageHeight="1169" math="0" shadow="0">
      <root>
        <mxCell id="0" />
        <mxCell id="1" parent="0" />
        <mxCell id="NpOdu0ahjYE1c_e9XBfU-1" value="LIVRO" style="rounded=0;whiteSpace=wrap;html=1;" vertex="1" parent="1">
          <mxGeometry x="520" y="280" width="120" height="60" as="geometry" />
        </mxCell>
        <mxCell id="NpOdu0ahjYE1c_e9XBfU-3" value="ALUNO" style="rounded=0;whiteSpace=wrap;html=1;" vertex="1" parent="1">
          <mxGeometry x="520" y="460" width="120" height="60" as="geometry" />
        </mxCell>
        <mxCell id="NpOdu0ahjYE1c_e9XBfU-4" value="ÁREA" style="rounded=0;whiteSpace=wrap;html=1;" vertex="1" parent="1">
          <mxGeometry x="520" y="100" width="120" height="60" as="geometry" />
        </mxCell>
        <mxCell id="NpOdu0ahjYE1c_e9XBfU-5" value="" style="ellipse;whiteSpace=wrap;html=1;aspect=fixed;" vertex="1" parent="1">
          <mxGeometry x="670" y="280" width="10" height="10" as="geometry" />
        </mxCell>
        <mxCell id="NpOdu0ahjYE1c_e9XBfU-6" value="" style="endArrow=none;html=1;rounded=0;exitX=1;exitY=0.25;exitDx=0;exitDy=0;entryX=0;entryY=0.5;entryDx=0;entryDy=0;" edge="1" parent="1" target="NpOdu0ahjYE1c_e9XBfU-5">
          <mxGeometry width="50" height="50" relative="1" as="geometry">
            <mxPoint x="640" y="285" as="sourcePoint" />
            <mxPoint x="675" y="285" as="targetPoint" />
          </mxGeometry>
        </mxCell>
        <mxCell id="NpOdu0ahjYE1c_e9XBfU-7" value="título" style="text;html=1;align=center;verticalAlign=middle;resizable=0;points=[];autosize=1;strokeColor=none;fillColor=none;" vertex="1" parent="1">
          <mxGeometry x="680" y="270" width="50" height="30" as="geometry" />
        </mxCell>
        <mxCell id="NpOdu0ahjYE1c_e9XBfU-8" value="" style="ellipse;whiteSpace=wrap;html=1;aspect=fixed;" vertex="1" parent="1">
          <mxGeometry x="670" y="300" width="10" height="10" as="geometry" />
        </mxCell>
        <mxCell id="NpOdu0ahjYE1c_e9XBfU-9" value="" style="endArrow=none;html=1;rounded=0;exitX=1;exitY=0.25;exitDx=0;exitDy=0;entryX=0;entryY=0.5;entryDx=0;entryDy=0;" edge="1" parent="1" target="NpOdu0ahjYE1c_e9XBfU-8">
          <mxGeometry width="50" height="50" relative="1" as="geometry">
            <mxPoint x="640" y="305" as="sourcePoint" />
            <mxPoint x="675" y="305" as="targetPoint" />
          </mxGeometry>
        </mxCell>
        <mxCell id="NpOdu0ahjYE1c_e9XBfU-10" value="nome do autor" style="text;html=1;align=center;verticalAlign=middle;resizable=0;points=[];autosize=1;strokeColor=none;fillColor=none;" vertex="1" parent="1">
          <mxGeometry x="680" y="290" width="100" height="30" as="geometry" />
        </mxCell>
        <mxCell id="NpOdu0ahjYE1c_e9XBfU-11" value="" style="ellipse;whiteSpace=wrap;html=1;aspect=fixed;" vertex="1" parent="1">
          <mxGeometry x="670" y="320" width="10" height="10" as="geometry" />
        </mxCell>
        <mxCell id="NpOdu0ahjYE1c_e9XBfU-12" value="" style="endArrow=none;html=1;rounded=0;exitX=1;exitY=0.25;exitDx=0;exitDy=0;entryX=0;entryY=0.5;entryDx=0;entryDy=0;" edge="1" parent="1" target="NpOdu0ahjYE1c_e9XBfU-11">
          <mxGeometry width="50" height="50" relative="1" as="geometry">
            <mxPoint x="640" y="325" as="sourcePoint" />
            <mxPoint x="675" y="325" as="targetPoint" />
          </mxGeometry>
        </mxCell>
        <mxCell id="NpOdu0ahjYE1c_e9XBfU-13" value="editora" style="text;html=1;align=center;verticalAlign=middle;resizable=0;points=[];autosize=1;strokeColor=none;fillColor=none;" vertex="1" parent="1">
          <mxGeometry x="680" y="310" width="60" height="30" as="geometry" />
        </mxCell>
        <mxCell id="NpOdu0ahjYE1c_e9XBfU-14" value="" style="ellipse;whiteSpace=wrap;html=1;aspect=fixed;fillColor=#000000;" vertex="1" parent="1">
          <mxGeometry x="480" y="280" width="10" height="10" as="geometry" />
        </mxCell>
        <mxCell id="NpOdu0ahjYE1c_e9XBfU-15" value="" style="endArrow=none;html=1;rounded=0;exitX=1;exitY=0.5;exitDx=0;exitDy=0;entryX=0;entryY=0.5;entryDx=0;entryDy=0;" edge="1" parent="1" source="NpOdu0ahjYE1c_e9XBfU-14">
          <mxGeometry width="50" height="50" relative="1" as="geometry">
            <mxPoint x="490" y="284.8" as="sourcePoint" />
            <mxPoint x="520" y="284.8" as="targetPoint" />
          </mxGeometry>
        </mxCell>
        <mxCell id="NpOdu0ahjYE1c_e9XBfU-16" value="ISBN" style="text;html=1;align=center;verticalAlign=middle;resizable=0;points=[];autosize=1;strokeColor=none;fillColor=none;" vertex="1" parent="1">
          <mxGeometry x="430" y="270" width="50" height="30" as="geometry" />
        </mxCell>
        <mxCell id="NpOdu0ahjYE1c_e9XBfU-17" value="" style="ellipse;whiteSpace=wrap;html=1;aspect=fixed;" vertex="1" parent="1">
          <mxGeometry x="670" y="465" width="10" height="10" as="geometry" />
        </mxCell>
        <mxCell id="NpOdu0ahjYE1c_e9XBfU-18" value="" style="endArrow=none;html=1;rounded=0;exitX=1;exitY=0.25;exitDx=0;exitDy=0;entryX=0;entryY=0.5;entryDx=0;entryDy=0;" edge="1" parent="1" target="NpOdu0ahjYE1c_e9XBfU-17">
          <mxGeometry width="50" height="50" relative="1" as="geometry">
            <mxPoint x="640" y="470" as="sourcePoint" />
            <mxPoint x="675" y="470" as="targetPoint" />
          </mxGeometry>
        </mxCell>
        <mxCell id="NpOdu0ahjYE1c_e9XBfU-19" value="nome" style="text;html=1;align=center;verticalAlign=middle;resizable=0;points=[];autosize=1;strokeColor=none;fillColor=none;" vertex="1" parent="1">
          <mxGeometry x="680" y="455" width="50" height="30" as="geometry" />
        </mxCell>
        <mxCell id="NpOdu0ahjYE1c_e9XBfU-20" value="" style="ellipse;whiteSpace=wrap;html=1;aspect=fixed;" vertex="1" parent="1">
          <mxGeometry x="670" y="485" width="10" height="10" as="geometry" />
        </mxCell>
        <mxCell id="NpOdu0ahjYE1c_e9XBfU-21" value="" style="endArrow=none;html=1;rounded=0;exitX=1;exitY=0.25;exitDx=0;exitDy=0;entryX=0;entryY=0.5;entryDx=0;entryDy=0;" edge="1" parent="1" target="NpOdu0ahjYE1c_e9XBfU-20">
          <mxGeometry width="50" height="50" relative="1" as="geometry">
            <mxPoint x="640" y="490" as="sourcePoint" />
            <mxPoint x="675" y="490" as="targetPoint" />
          </mxGeometry>
        </mxCell>
        <mxCell id="NpOdu0ahjYE1c_e9XBfU-22" value="turma" style="text;html=1;align=center;verticalAlign=middle;resizable=0;points=[];autosize=1;strokeColor=none;fillColor=none;" vertex="1" parent="1">
          <mxGeometry x="680" y="475" width="50" height="30" as="geometry" />
        </mxCell>
        <mxCell id="NpOdu0ahjYE1c_e9XBfU-23" value="" style="ellipse;whiteSpace=wrap;html=1;aspect=fixed;" vertex="1" parent="1">
          <mxGeometry x="670" y="505" width="10" height="10" as="geometry" />
        </mxCell>
        <mxCell id="NpOdu0ahjYE1c_e9XBfU-24" value="" style="endArrow=none;html=1;rounded=0;exitX=1;exitY=0.25;exitDx=0;exitDy=0;entryX=0;entryY=0.5;entryDx=0;entryDy=0;" edge="1" parent="1" target="NpOdu0ahjYE1c_e9XBfU-23">
          <mxGeometry width="50" height="50" relative="1" as="geometry">
            <mxPoint x="640" y="510" as="sourcePoint" />
            <mxPoint x="675" y="510" as="targetPoint" />
          </mxGeometry>
        </mxCell>
        <mxCell id="NpOdu0ahjYE1c_e9XBfU-25" value="telefone" style="text;html=1;align=center;verticalAlign=middle;resizable=0;points=[];autosize=1;strokeColor=none;fillColor=none;" vertex="1" parent="1">
          <mxGeometry x="675" y="495" width="70" height="30" as="geometry" />
        </mxCell>
        <mxCell id="NpOdu0ahjYE1c_e9XBfU-26" value="" style="ellipse;whiteSpace=wrap;html=1;aspect=fixed;fillColor=#000000;" vertex="1" parent="1">
          <mxGeometry x="480" y="465" width="10" height="10" as="geometry" />
        </mxCell>
        <mxCell id="NpOdu0ahjYE1c_e9XBfU-27" value="" style="endArrow=none;html=1;rounded=0;exitX=1;exitY=0.5;exitDx=0;exitDy=0;entryX=0;entryY=0.5;entryDx=0;entryDy=0;" edge="1" parent="1" source="NpOdu0ahjYE1c_e9XBfU-26">
          <mxGeometry width="50" height="50" relative="1" as="geometry">
            <mxPoint x="490" y="469.8" as="sourcePoint" />
            <mxPoint x="520" y="469.8" as="targetPoint" />
          </mxGeometry>
        </mxCell>
        <mxCell id="NpOdu0ahjYE1c_e9XBfU-28" value="matrícula" style="text;html=1;align=center;verticalAlign=middle;resizable=0;points=[];autosize=1;strokeColor=none;fillColor=none;" vertex="1" parent="1">
          <mxGeometry x="410" y="455" width="70" height="30" as="geometry" />
        </mxCell>
        <mxCell id="NpOdu0ahjYE1c_e9XBfU-29" value="empresta" style="rhombus;whiteSpace=wrap;html=1;" vertex="1" parent="1">
          <mxGeometry x="535" y="380" width="90" height="50" as="geometry" />
        </mxCell>
        <mxCell id="NpOdu0ahjYE1c_e9XBfU-41" value="" style="ellipse;whiteSpace=wrap;html=1;aspect=fixed;" vertex="1" parent="1">
          <mxGeometry x="655" y="400" width="10" height="10" as="geometry" />
        </mxCell>
        <mxCell id="NpOdu0ahjYE1c_e9XBfU-42" value="" style="endArrow=none;html=1;rounded=0;exitX=1;exitY=0.25;exitDx=0;exitDy=0;entryX=0;entryY=0.5;entryDx=0;entryDy=0;" edge="1" parent="1" target="NpOdu0ahjYE1c_e9XBfU-41">
          <mxGeometry width="50" height="50" relative="1" as="geometry">
            <mxPoint x="625" y="405" as="sourcePoint" />
            <mxPoint x="660" y="405" as="targetPoint" />
          </mxGeometry>
        </mxCell>
        <mxCell id="NpOdu0ahjYE1c_e9XBfU-43" value="data de empréstimo" style="text;html=1;align=center;verticalAlign=middle;resizable=0;points=[];autosize=1;strokeColor=none;fillColor=none;" vertex="1" parent="1">
          <mxGeometry x="665" y="390" width="130" height="30" as="geometry" />
        </mxCell>
        <mxCell id="NpOdu0ahjYE1c_e9XBfU-44" value="" style="ellipse;whiteSpace=wrap;html=1;aspect=fixed;fillColor=#FFFFFF;" vertex="1" parent="1">
          <mxGeometry x="480" y="505" width="10" height="10" as="geometry" />
        </mxCell>
        <mxCell id="NpOdu0ahjYE1c_e9XBfU-45" value="" style="endArrow=none;html=1;rounded=0;exitX=1;exitY=0.5;exitDx=0;exitDy=0;entryX=0;entryY=0.5;entryDx=0;entryDy=0;" edge="1" parent="1" source="NpOdu0ahjYE1c_e9XBfU-44">
          <mxGeometry width="50" height="50" relative="1" as="geometry">
            <mxPoint x="490" y="509.8" as="sourcePoint" />
            <mxPoint x="520" y="509.8" as="targetPoint" />
          </mxGeometry>
        </mxCell>
        <mxCell id="NpOdu0ahjYE1c_e9XBfU-46" value="hist. de empréstimos" style="text;html=1;align=center;verticalAlign=middle;resizable=0;points=[];autosize=1;strokeColor=none;fillColor=none;" vertex="1" parent="1">
          <mxGeometry x="350" y="495" width="130" height="30" as="geometry" />
        </mxCell>
        <mxCell id="NpOdu0ahjYE1c_e9XBfU-47" value="" style="endArrow=none;html=1;rounded=0;entryX=0.5;entryY=1;entryDx=0;entryDy=0;exitX=0.5;exitY=0;exitDx=0;exitDy=0;" edge="1" parent="1" source="NpOdu0ahjYE1c_e9XBfU-29" target="NpOdu0ahjYE1c_e9XBfU-1">
          <mxGeometry width="50" height="50" relative="1" as="geometry">
            <mxPoint x="540" y="420" as="sourcePoint" />
            <mxPoint x="590" y="370" as="targetPoint" />
          </mxGeometry>
        </mxCell>
        <mxCell id="NpOdu0ahjYE1c_e9XBfU-48" value="" style="endArrow=none;html=1;rounded=0;entryX=0.5;entryY=1;entryDx=0;entryDy=0;exitX=0.5;exitY=0;exitDx=0;exitDy=0;" edge="1" parent="1" source="NpOdu0ahjYE1c_e9XBfU-3" target="NpOdu0ahjYE1c_e9XBfU-29">
          <mxGeometry width="50" height="50" relative="1" as="geometry">
            <mxPoint x="540" y="420" as="sourcePoint" />
            <mxPoint x="590" y="370" as="targetPoint" />
          </mxGeometry>
        </mxCell>
        <mxCell id="NpOdu0ahjYE1c_e9XBfU-50" value="pertence" style="rhombus;whiteSpace=wrap;html=1;" vertex="1" parent="1">
          <mxGeometry x="535" y="200" width="90" height="50" as="geometry" />
        </mxCell>
        <mxCell id="NpOdu0ahjYE1c_e9XBfU-51" value="" style="endArrow=none;html=1;rounded=0;entryX=0.5;entryY=1;entryDx=0;entryDy=0;exitX=0.5;exitY=0;exitDx=0;exitDy=0;" edge="1" parent="1" source="NpOdu0ahjYE1c_e9XBfU-50">
          <mxGeometry width="50" height="50" relative="1" as="geometry">
            <mxPoint x="540" y="240" as="sourcePoint" />
            <mxPoint x="580" y="160" as="targetPoint" />
          </mxGeometry>
        </mxCell>
        <mxCell id="NpOdu0ahjYE1c_e9XBfU-52" value="" style="endArrow=none;html=1;rounded=0;entryX=0.5;entryY=1;entryDx=0;entryDy=0;exitX=0.5;exitY=0;exitDx=0;exitDy=0;" edge="1" parent="1" target="NpOdu0ahjYE1c_e9XBfU-50">
          <mxGeometry width="50" height="50" relative="1" as="geometry">
            <mxPoint x="580" y="280" as="sourcePoint" />
            <mxPoint x="590" y="190" as="targetPoint" />
          </mxGeometry>
        </mxCell>
        <mxCell id="NpOdu0ahjYE1c_e9XBfU-55" value="" style="ellipse;whiteSpace=wrap;html=1;aspect=fixed;fillColor=#FFFFFF;" vertex="1" parent="1">
          <mxGeometry x="495" y="400" width="10" height="10" as="geometry" />
        </mxCell>
        <mxCell id="NpOdu0ahjYE1c_e9XBfU-56" value="" style="endArrow=none;html=1;rounded=0;exitX=1;exitY=0.5;exitDx=0;exitDy=0;entryX=0;entryY=0.5;entryDx=0;entryDy=0;" edge="1" parent="1" source="NpOdu0ahjYE1c_e9XBfU-55">
          <mxGeometry width="50" height="50" relative="1" as="geometry">
            <mxPoint x="505" y="404.8" as="sourcePoint" />
            <mxPoint x="535" y="404.8" as="targetPoint" />
          </mxGeometry>
        </mxCell>
        <mxCell id="NpOdu0ahjYE1c_e9XBfU-57" value="data de devolução" style="text;html=1;align=center;verticalAlign=middle;resizable=0;points=[];autosize=1;strokeColor=none;fillColor=none;" vertex="1" parent="1">
          <mxGeometry x="375" y="390" width="120" height="30" as="geometry" />
        </mxCell>
        <mxCell id="NpOdu0ahjYE1c_e9XBfU-58" value="" style="ellipse;whiteSpace=wrap;html=1;aspect=fixed;fillColor=#000000;" vertex="1" parent="1">
          <mxGeometry x="480" y="100" width="10" height="10" as="geometry" />
        </mxCell>
        <mxCell id="NpOdu0ahjYE1c_e9XBfU-59" value="" style="endArrow=none;html=1;rounded=0;exitX=1;exitY=0.5;exitDx=0;exitDy=0;entryX=0;entryY=0.5;entryDx=0;entryDy=0;" edge="1" parent="1" source="NpOdu0ahjYE1c_e9XBfU-58">
          <mxGeometry width="50" height="50" relative="1" as="geometry">
            <mxPoint x="490" y="104.80000000000001" as="sourcePoint" />
            <mxPoint x="520" y="104.80000000000001" as="targetPoint" />
          </mxGeometry>
        </mxCell>
        <mxCell id="NpOdu0ahjYE1c_e9XBfU-60" value="gênero" style="text;html=1;align=center;verticalAlign=middle;resizable=0;points=[];autosize=1;strokeColor=none;fillColor=none;" vertex="1" parent="1">
          <mxGeometry x="420" y="90" width="60" height="30" as="geometry" />
        </mxCell>
      </root>
    </mxGraphModel>
  </diagram>
</mxfile>
